# xmcd
#
# Track frame offsets:
#	150
#	14149
#	34685
#	63118
#	77901
#	93359
#	112971
#	131549
#	158750
#	169489
#	182725
#	193318
#	208974
#	221818
#	233904
#	255897
#	275532
#
# Disc length: 3950 seconds
#
# Revision: 0
# Processed by: cddbd v1.5.2PL0 Copyright (c) Steve Scherf et al.
# Submitted via: audiograbber 1.83.01
#
DISCID=f60f6c11
DTITLE=Various Artist - Olivers Market Real Music Vol. 1 - Disc 2
DYEAR=2112
DGENRE=
TTITLE0=Pomplamoose - Bust Your Knee Caps
TTITLE1=Detroit Disciples - Government Man
TTITLE2=The Thugz - Peace of Mind
TTITLE3=Chris Caswell - Jenny Plucks Pears
TTITLE4=DGIIN - A Fleur de Peau
TTITLE5=Lauren O'Connell - Every Space
TTITLE6=Lost Dog Found - Jump Back
TTITLE7=Onye Onyemaechi - Rock of Ages
TTITLE8=Blue Moon - Sweet Life
TTITLE9=Jen Tucker - Pushin' Daisies
TTITLE10=The Hot Frittatas - Las Paritas Polka
TTITLE11=Beso Negro - C'est La Vie
TTITLE12=Keith Andrew - Who Dat, Said Who Dat?
TTITLE13=Salty De Vito - Sucker
TTITLE14=The Linda Ferro Band - Not Him Again
TTITLE15=Michael Barclay - Call Me Lazarus
TTITLE16=Jim Boggio - E. Cotati Blues
EXTD=Disk Two benefiting the Redwood Empire Food bank, featuring Sonoma County 
EXTD=California artists.
EXTT0=
EXTT1=
EXTT2=
EXTT3=
EXTT4=
EXTT5=
EXTT6=
EXTT7=
EXTT8=
EXTT9=
EXTT10=
EXTT11=
EXTT12=
EXTT13=
EXTT14=
EXTT15=
EXTT16=
PLAYORDER=
